<?xml version="1.0" encoding="iso-8859-1"?>
<!-- Uploaded to: SVG Repo, www.svgrepo.com, Generator: SVG Repo Mixer Tools -->
<!DOCTYPE svg PUBLIC "-//W3C//DTD SVG 1.1//EN" "http://www.w3.org/Graphics/SVG/1.1/DTD/svg11.dtd">
<svg fill="#000000" height="800px" width="800px" version="1.1" id="Capa_1" xmlns="http://www.w3.org/2000/svg" xmlns:xlink="http://www.w3.org/1999/xlink" 
	 viewBox="0 0 241.631 241.631" xml:space="preserve">
<path d="M44.466,90.562c-12.086,16.382-18.475,35.831-18.475,56.245c0,52.287,42.538,94.825,94.825,94.825
	s94.825-42.538,94.825-94.825c0-48.509-36.616-88.621-83.66-94.164V0L44.076,59.481l87.904,59.482V67.779
	c38.747,5.449,68.66,38.802,68.66,79.027c0,44.016-35.809,79.825-79.825,79.825s-79.825-35.809-79.825-79.825
	c0-17.186,5.375-33.555,15.545-47.339L44.466,90.562z M116.98,90.702l-46.138-31.22l46.138-31.22V90.702z"/>
</svg>